<svg width="205" height="49" viewBox="0 0 205 49" fill="none" xmlns="http://www.w3.org/2000/svg">
<g clipPath="url(#clip0_402_58)">
<path d="M93.5156 48.3103V0H104.593V39.8887H127.052V48.3103H93.5156Z" fill="white"/>
<path d="M142.031 48.9948C139.743 49.0349 137.469 48.6231 135.329 47.7813C133.478 47.055 131.867 45.7955 130.684 44.1513C129.507 42.4016 128.91 40.3035 128.982 38.1722C128.923 36.3985 129.341 34.6426 130.189 33.1005C131 31.7349 132.134 30.6053 133.482 29.8179C134.955 28.9467 136.546 28.3103 138.202 27.9303C140.026 27.4944 141.878 27.1946 143.743 27.0332C146.032 26.8154 147.868 26.6063 149.249 26.4057C150.309 26.3165 151.342 26.0172 152.292 25.5242C152.591 25.3519 152.837 25.0974 153.004 24.7889C153.171 24.4804 153.252 24.13 153.238 23.7766V23.6366C153.273 22.9761 153.155 22.3167 152.894 21.7132C152.633 21.1097 152.236 20.5797 151.737 20.1673C150.736 19.3549 149.299 18.9469 147.427 18.9435C145.465 18.9435 143.923 19.3376 142.747 20.131C141.668 20.8197 140.854 21.8757 140.445 23.118L130.364 22.3609C130.853 20.2148 131.89 18.2446 133.367 16.6566C135.001 14.9607 136.994 13.6838 139.188 12.928C141.865 12.0007 144.675 11.5535 147.497 11.6057C149.603 11.5963 151.704 11.8311 153.759 12.3057C155.645 12.7295 157.45 13.4705 159.105 14.4993C160.618 15.4404 161.887 16.7485 162.804 18.3108C163.741 19.9974 164.21 21.9193 164.16 23.8647V48.3051H153.824V43.2801H153.504C152.863 44.4348 152.013 45.4506 151.001 46.2723C149.857 47.1735 148.565 47.8534 147.187 48.2792C145.513 48.7845 143.775 49.0258 142.031 48.9948ZM145.15 42.0615C146.612 42.091 148.062 41.7883 149.399 41.1747C150.547 40.6527 151.543 39.8285 152.287 38.7841C152.984 37.7902 153.353 36.5899 153.339 35.3615V31.4929C152.898 31.7393 152.429 31.9258 151.942 32.0478C151.358 32.2138 150.691 32.3641 149.94 32.499C149.209 32.6338 148.473 32.7479 147.743 32.8516L145.74 33.1213C144.595 33.2627 143.47 33.5411 142.387 33.951C141.534 34.2551 140.77 34.7778 140.164 35.4704C139.85 35.8794 139.62 36.3518 139.491 36.8575C139.362 37.3632 139.335 37.8912 139.413 38.4081C139.492 38.9249 139.673 39.4193 139.945 39.8599C140.217 40.3004 140.575 40.6775 140.995 40.9673C142.249 41.7406 143.692 42.1207 145.15 42.0615Z" fill="white"/>
<path d="M166.68 48.3103V0H177.581V18.1501H177.912C178.469 17.0577 179.171 16.0522 179.999 15.1631C181.014 14.0729 182.231 13.2068 183.578 12.6169C185.323 11.877 187.199 11.5237 189.084 11.5797C191.856 11.5587 194.587 12.2727 197.017 13.654C199.497 15.0967 201.516 17.2599 202.823 19.8769C204.268 22.6426 204.992 26.0998 204.996 30.2484C204.996 34.2863 204.293 37.6951 202.889 40.4747C201.612 43.1073 199.619 45.2956 197.157 46.7701C194.682 48.2113 191.883 48.9467 189.044 48.9015C187.205 48.9524 185.374 48.6246 183.658 47.9369C182.31 47.3732 181.081 46.5437 180.039 45.4944C179.181 44.6179 178.456 43.6106 177.892 42.5075H177.391V48.3103H166.68ZM177.351 30.1965C177.309 32.1237 177.639 34.0402 178.322 35.8334C178.892 37.335 179.869 38.6336 181.135 39.5723C182.479 40.4515 184.036 40.9181 185.625 40.9181C187.214 40.9181 188.771 40.4515 190.115 39.5723C191.378 38.6209 192.35 37.3118 192.913 35.8023C193.582 34.0254 193.909 32.1296 193.874 30.2225C193.91 28.3351 193.589 26.4587 192.928 24.6996C192.366 23.2036 191.398 21.9084 190.14 20.9711C188.804 20.0413 187.219 19.5714 185.61 19.628C184.015 19.57 182.442 20.0227 181.105 20.9244C179.847 21.8438 178.874 23.1233 178.307 24.6063C177.631 26.3848 177.306 28.2856 177.351 30.1965Z" fill="white"/>
<path d="M31.0233 32.0684H31.3436L23.4952 40.1996L15.7719 48.196L0 48.113L15.4866 32.0684H31.0233Z" fill="#1CFEBA"/>
<path d="M77.7328 16.1954L70.0645 24.1399L77.7178 32.0637L62.2261 48.1136H46.8296L31.373 32.1052L0.464844 0.078125H15.9364L54.613 40.1483L62.2011 32.1052L54.4778 24.1036L62.2562 16.045L54.7181 8.24047L47.1449 16.0917L31.338 16.0398L46.7395 0.078125H62.2461L77.7328 16.1954Z" fill="white"/>
</g>
<defs>
<clipPath id="clip0_402_58">
<rect width="205" height="49" fill="white"/>
</clipPath>
</defs>
</svg>
