<svg width="135" height="32" viewBox="0 0 135 32" fill="none" xmlns="http://www.w3.org/2000/svg">
<g clipPath="url(#clip0_402_38)">
<path d="M61.584 31.5496V0H68.8785V26.0497H83.6687V31.5496H61.584Z" fill="#1B5299"/>
<path d="M93.5326 31.9962C92.0258 32.0224 90.5279 31.7535 89.119 31.2038C87.9002 30.7295 86.8388 29.9069 86.0601 28.8332C85.2851 27.6905 84.8918 26.3203 84.9394 24.9284C84.9004 23.7701 85.1755 22.6234 85.7338 21.6163C86.2683 20.7245 87.0146 19.9868 87.9027 19.4726C88.8727 18.9036 89.9205 18.488 91.011 18.2399C92.2121 17.9552 93.4316 17.7594 94.66 17.654C96.1674 17.5117 97.376 17.3752 98.2858 17.2442C98.9836 17.1859 99.6639 16.9905 100.29 16.6685C100.486 16.556 100.648 16.3898 100.758 16.1883C100.868 15.9868 100.922 15.758 100.913 15.5272V15.4358C100.936 15.0045 100.858 14.5738 100.686 14.1797C100.514 13.7856 100.253 13.4394 99.924 13.1701C99.2648 12.6396 98.3188 12.3731 97.086 12.3709C95.7939 12.3709 94.7786 12.6283 94.004 13.1464C93.2936 13.5962 92.7576 14.2858 92.4878 15.0971L85.8492 14.6027C86.1713 13.2012 86.8544 11.9145 87.8269 10.8774C88.9026 9.76987 90.2153 8.93603 91.6604 8.44243C93.4232 7.83683 95.2737 7.54478 97.1321 7.57884C98.5189 7.57274 99.9021 7.72609 101.256 8.03603C102.497 8.3128 103.687 8.79672 104.776 9.46856C105.772 10.0832 106.608 10.9374 107.212 11.9577C107.829 13.0592 108.138 14.3143 108.105 15.5848V31.5458H101.299V28.2642H101.088C100.665 29.0183 100.106 29.6817 99.4395 30.2183C98.6858 30.8068 97.8349 31.2508 96.9278 31.5289C95.8253 31.8589 94.6808 32.0165 93.5326 31.9962ZM95.5862 27.4684C96.549 27.4876 97.5042 27.29 98.3847 26.8892C99.1405 26.5484 99.7962 26.0101 100.287 25.328C100.746 24.679 100.988 23.8951 100.979 23.0929V20.5665C100.689 20.7273 100.38 20.8491 100.059 20.9288C99.6746 21.0372 99.2351 21.1354 98.7407 21.2235C98.2594 21.3115 97.7749 21.386 97.2936 21.4538L95.9751 21.6299C95.2211 21.7222 94.48 21.904 93.7667 22.1717C93.2052 22.3703 92.7017 22.7117 92.3032 23.164C92.0959 23.4311 91.9448 23.7396 91.8597 24.0698C91.7746 24.4001 91.7572 24.7449 91.8086 25.0825C91.8601 25.42 91.9793 25.7429 92.1586 26.0306C92.3379 26.3183 92.5735 26.5646 92.8503 26.7538C93.6758 27.2588 94.6262 27.507 95.5862 27.4684Z" fill="#1B5299"/>
<path d="M109.764 31.5496V0H116.943V11.8531H117.16C117.527 11.1397 117.99 10.483 118.535 9.90242C119.203 9.19049 120.005 8.62486 120.892 8.2396C122.041 7.75639 123.276 7.52567 124.518 7.56228C126.343 7.54852 128.142 8.01485 129.742 8.91692C131.375 9.85908 132.705 11.2718 133.566 12.9808C134.517 14.787 134.994 17.0448 134.996 19.754C134.996 22.3911 134.534 24.6172 133.609 26.4324C132.768 28.1517 131.456 29.5808 129.834 30.5438C128.204 31.4849 126.361 31.9652 124.491 31.9357C123.28 31.9689 122.074 31.7548 120.944 31.3057C120.057 30.9376 119.248 30.3959 118.561 29.7107C117.996 29.1382 117.519 28.4804 117.147 27.76H116.818V31.5496H109.764ZM116.791 19.7202C116.764 20.9788 116.981 22.2303 117.431 23.4014C117.806 24.382 118.449 25.2301 119.283 25.8432C120.168 26.4173 121.193 26.722 122.24 26.722C123.286 26.722 124.312 26.4173 125.197 25.8432C126.029 25.2218 126.668 24.3669 127.039 23.3811C127.48 22.2207 127.695 20.9826 127.672 19.7371C127.696 18.5046 127.484 17.2791 127.049 16.1304C126.679 15.1533 126.041 14.3075 125.213 13.6954C124.333 13.0882 123.289 12.7813 122.23 12.8183C121.18 12.7804 120.144 13.076 119.263 13.6649C118.435 14.2653 117.794 15.1009 117.421 16.0694C116.976 17.2309 116.761 18.4723 116.791 19.7202Z" fill="#1B5299"/>
<path d="M20.43 20.9424H20.6409L15.4725 26.2526L10.3864 31.4747L0 31.4205L10.1985 20.9424H20.43Z" fill="#1CFEBA"/>
<path d="M51.1904 10.5763L46.1406 15.7646L51.1805 20.9393L40.9787 31.4209H30.8395L20.6608 20.9664L0.306641 0.0507812H10.4953L35.9652 26.2191L40.9622 20.9664L35.8762 15.7409L40.9985 10.4781L36.0344 5.38129L31.0472 10.5086L20.6377 10.4747L30.7802 0.0507812H40.9919L51.1904 10.5763Z" fill="#1B5299"/>
</g>
<defs>
<clipPath id="clip0_402_38">
<rect width="135" height="32" fill="white"/>
</clipPath>
</defs>
</svg>
